<svg version="1.1" viewBox="0.0 0.0 362.26509186351706 382.18897637795277" fill="none" stroke="none" stroke-linecap="square" stroke-miterlimit="10" xmlns:xlink="http://www.w3.org/1999/xlink" xmlns="http://www.w3.org/2000/svg"><clipPath id="p.0"><path d="m0 0l362.2651 0l0 382.18896l-362.2651 0l0 -382.18896z" clip-rule="nonzero"/></clipPath><g clip-path="url(#p.0)"><path fill="#000000" fill-opacity="0.0" d="m0 0l362.2651 0l0 382.18896l-362.2651 0z" fill-rule="evenodd"/><defs><linearGradient id="p.1" gradientUnits="userSpaceOnUse" gradientTransform="matrix(18.91384438173129 0.0 0.0 18.91384438173129 0.0 0.0)" spreadMethod="pad" x1="0.5287826279049954" y1="0.47869127492367214" x2="0.5287141577078354" y2="19.39253565653103"><stop offset="0.0" stop-color="#8c8c8c"/><stop offset="1.0" stop-color="#404040"/></linearGradient></defs><path fill="url(#p.1)" d="m10.001312 65.50769l0 0c0 -31.177895 25.274677 -56.45257 56.452576 -56.45257l225.80353 0l0 0c14.972137 0 29.331085 5.9476643 39.91797 16.534575c10.586914 10.586912 16.534576 24.945845 16.534576 39.918l0 244.82715c0 31.177887 -25.274658 56.452576 -56.452545 56.452576l-225.80353 0l0 0c-31.177898 0 -56.452576 -25.274689 -56.452576 -56.452576z" fill-rule="evenodd"/><defs><linearGradient id="p.2" gradientUnits="userSpaceOnUse" gradientTransform="matrix(14.07924200251819 0.0 0.0 14.07924200251819 0.0 0.0)" spreadMethod="pad" x1="6.486831686676767" y1="5.665558062505895" x2="6.486780712076934" y2="19.74480006493181"><stop offset="0.0" stop-color="#f4cccc"/><stop offset="0.28" stop-color="#fff2cc"/><stop offset="0.44" stop-color="#d9ead3"/><stop offset="0.57" stop-color="#c9daf8"/><stop offset="0.74" stop-color="#ead1dc"/><stop offset="1.0" stop-color="#ffffff"/></linearGradient></defs><path fill="url(#p.2)" d="m93.80344 79.7674l-2.4737625 46.48626l5.875183 0c0.72151184 -8.965904 2.9891205 -16.080154 6.8028336 -21.342743c3.813713 -5.262596 8.400475 -8.819725 13.760292 -10.671379c4.1229324 -1.3643723 11.080376 -2.0465622 20.872337 -2.0465622l25.201431 0l0 151.4458c0 11.109924 -1.1338043 18.224167 -3.401413 21.342758c-3.7106476 5.067688 -9.998123 7.601532 -18.862427 7.601532l-7.42128 0l0 5.4087524l88.90074 0l0 -5.4087524l-7.266678 0c-8.142792 0 -14.172577 -2.0465698 -18.089355 -6.1397095c-2.7829895 -3.0211182 -4.174469 -10.62265 -4.174469 -22.80458l0 -151.4458l29.530502 0c8.658157 0 15.632782 1.3481369 20.923874 4.044403c5.3254547 2.6637878 9.585831 6.821884 12.781082 12.474297c1.9584045 3.5084 3.5045166 9.355728 4.6383057 17.541985l5.875183 0l-2.3191528 -46.48626z" fill-rule="evenodd"/><defs><linearGradient id="p.3" gradientUnits="userSpaceOnUse" gradientTransform="matrix(6.40034877199193 0.0 0.0 6.40034877199193 0.0 0.0)" spreadMethod="pad" x1="7.313412985969371" y1="45.70478660213838" x2="7.313390559575041" y2="52.10513537409102"><stop offset="0.0" stop-color="#f4cccc"/><stop offset="0.28" stop-color="#fff2cc"/><stop offset="0.44" stop-color="#d9ead3"/><stop offset="0.57" stop-color="#c9daf8"/><stop offset="0.74" stop-color="#ead1dc"/><stop offset="1.0" stop-color="#ffffff"/></linearGradient></defs><path fill="url(#p.3)" d="m46.808395 292.52756l0 4.7561646l14.036804 0l0 35.547516l5.63797 0l0 -35.547516l14.094925 0l0 -4.7561646z" fill-rule="evenodd"/><defs><linearGradient id="p.4" gradientUnits="userSpaceOnUse" gradientTransform="matrix(6.40034877199193 0.0 0.0 6.40034877199193 0.0 0.0)" spreadMethod="pad" x1="7.313412985969371" y1="45.70478660213838" x2="7.313390559575041" y2="52.10513537409102"><stop offset="0.0" stop-color="#f4cccc"/><stop offset="0.28" stop-color="#fff2cc"/><stop offset="0.44" stop-color="#d9ead3"/><stop offset="0.57" stop-color="#c9daf8"/><stop offset="0.74" stop-color="#ead1dc"/><stop offset="1.0" stop-color="#ffffff"/></linearGradient></defs><path fill="url(#p.4)" d="m94.81834 302.9746c-1.2205963 0 -2.3410873 0.32992554 -3.361473 0.9897156c-1.0139313 0.65982056 -2.1215057 2.0252686 -3.3227234 4.0963745l0 -4.4262695l-4.7079926 0l0 29.196808l5.231102 0l0 -15.285706c0 -2.0894165 0.2906189 -4.0138855 0.8718567 -5.7733765c0.38748932 -1.1546936 1.0365295 -2.0558167 1.9471283 -2.7034302c0.9106064 -0.6536865 1.9374466 -0.9805298 3.0805435 -0.9805298c1.278717 0 2.557434 0.35739136 3.8361435 1.0721741l1.8018265 -4.5911865c-1.8211975 -1.0630493 -3.6133347 -1.594574 -5.3764114 -1.594574z" fill-rule="evenodd"/><defs><linearGradient id="p.5" gradientUnits="userSpaceOnUse" gradientTransform="matrix(6.40034877199193 0.0 0.0 6.40034877199193 0.0 0.0)" spreadMethod="pad" x1="7.313412985969371" y1="45.70478660213838" x2="7.313390559575041" y2="52.10513537409102"><stop offset="0.0" stop-color="#f4cccc"/><stop offset="0.28" stop-color="#fff2cc"/><stop offset="0.44" stop-color="#d9ead3"/><stop offset="0.57" stop-color="#c9daf8"/><stop offset="0.74" stop-color="#ead1dc"/><stop offset="1.0" stop-color="#ffffff"/></linearGradient></defs><path fill="url(#p.5)" d="m116.03338 307.0435c2.6543045 0 4.81456 0.95306396 6.4807587 2.859192c1.0849762 1.2279663 1.7437057 3.0699768 1.9761963 5.52594l-17.23359 0c0.17436981 -2.5476074 1.0785141 -4.5820312 2.7124252 -6.1032715c1.6403732 -1.5212402 3.6617737 -2.2818604 6.064209 -2.2818604zm-0.058120728 -4.068878c-4.2623825 0 -7.7304153 1.3562927 -10.404091 4.068878c-2.6736755 2.712555 -4.010521 6.524811 -4.010521 11.436768c0 4.7470093 1.3207016 8.437073 3.962082 11.070251c2.64785 2.6270142 6.228897 3.9405518 10.743149 3.9405518c3.5842743 0 6.52919 -0.82476807 8.834755 -2.4743042c2.3055649 -1.6495361 3.8845825 -3.968048 4.7370605 -6.9555664l-5.4054794 -0.6323242c-0.7943573 2.0894165 -1.8696365 3.6106567 -3.225853 4.5637207c-1.3562088 0.95306396 -2.9933548 1.429596 -4.9114227 1.429596c-2.576805 0 -4.727371 -0.8522339 -6.4516983 -2.5567627c-1.7243271 -1.7045288 -2.6833649 -4.160492 -2.8771133 -7.3679504l23.016876 0c0.019378662 -0.5864868 0.029052734 -1.0263672 0.029052734 -1.3196106c0 -4.8203125 -1.3077698 -8.559265 -3.9233246 -11.216858c-2.6155548 -2.6575928 -5.9867096 -3.9863892 -10.113472 -3.9863892z" fill-rule="evenodd"/><defs><linearGradient id="p.6" gradientUnits="userSpaceOnUse" gradientTransform="matrix(6.40034877199193 0.0 0.0 6.40034877199193 0.0 0.0)" spreadMethod="pad" x1="7.313412985969371" y1="45.70478660213838" x2="7.313390559575041" y2="52.10513537409102"><stop offset="0.0" stop-color="#f4cccc"/><stop offset="0.28" stop-color="#fff2cc"/><stop offset="0.44" stop-color="#d9ead3"/><stop offset="0.57" stop-color="#c9daf8"/><stop offset="0.74" stop-color="#ead1dc"/><stop offset="1.0" stop-color="#ffffff"/></linearGradient></defs><path fill="url(#p.6)" d="m146.54817 302.9746c-1.608078 0 -3.1160583 0.19857788 -4.523941 0.5956726c-1.401413 0.3909912 -2.5089874 0.87057495 -3.3227234 1.4387512c-1.0849609 0.7331543 -1.9438934 1.6556702 -2.5767975 2.7675781c-0.6264496 1.1058044 -0.93966675 2.3093567 -0.93966675 3.6106567c0 1.429596 0.38102722 2.7369995 1.1430969 3.9222107c0.76852417 1.1791077 1.8922424 2.1047058 3.3711548 2.7767334c1.4853821 0.6659241 4.1461334 1.4570923 7.9822845 2.3735046c2.8480377 0.6781311 4.630493 1.2371521 5.347351 1.6770325c1.0268402 0.6414795 1.540268 1.5212402 1.540268 2.6392517c0 1.2463074 -0.5812378 2.3337708 -1.7436981 3.2624207c-1.1624756 0.92251587 -2.9449158 1.3837585 -5.347351 1.3837585c-2.3830566 0 -4.239792 -0.52233887 -5.57016 -1.5670471c-1.3239288 -1.0447083 -2.131195 -2.5476074 -2.421814 -4.508728l-5.172989 0.7697754c0.5812378 3.0974731 1.9213104 5.434326 4.0202026 7.0105286c2.105362 1.5762329 5.1632996 2.3643494 9.173813 2.3643494c2.421814 0 4.591751 -0.39712524 6.5098267 -1.1913452c1.9180756 -0.8003235 3.384079 -1.9275208 4.3980103 -3.3815308c1.0203857 -1.4601746 1.5305786 -3.0150146 1.5305786 -4.664551c0 -1.6861877 -0.41654968 -3.0974426 -1.249649 -4.233795c-0.83309937 -1.1363525 -1.982666 -2.000824 -3.4486542 -2.5934448c-1.459549 -0.59872437 -4.0395813 -1.365448 -7.7401123 -2.300171c-2.5574188 -0.65982056 -4.097702 -1.0813904 -4.620804 -1.2646484c-0.91059875 -0.34823608 -1.5790253 -0.78811646 -2.0052643 -1.3196411c-0.426239 -0.5131836 -0.6393585 -1.0905151 -0.6393585 -1.7320251c0 -1.0080261 0.51342773 -1.8877869 1.5402832 -2.6392517c1.0268402 -0.75146484 2.7414856 -1.1271667 5.143921 -1.1271667c2.034317 0 3.6068726 0.4215393 4.717682 1.2646179c1.1172485 0.84310913 1.7921295 2.0161133 2.0246277 3.5190125l5.114853 -0.65979004c-0.32936096 -1.8878174 -0.92996216 -3.3937683 -1.8018188 -4.517914c-0.8718567 -1.1302185 -2.2248383 -2.0252686 -4.0589447 -2.685089c-1.8276672 -0.65979004 -3.9523926 -0.9897156 -6.3742065 -0.9897156z" fill-rule="evenodd"/><defs><linearGradient id="p.7" gradientUnits="userSpaceOnUse" gradientTransform="matrix(6.40034877199193 0.0 0.0 6.40034877199193 0.0 0.0)" spreadMethod="pad" x1="7.313412985969371" y1="45.70478660213838" x2="7.313390559575041" y2="52.10513537409102"><stop offset="0.0" stop-color="#f4cccc"/><stop offset="0.28" stop-color="#fff2cc"/><stop offset="0.44" stop-color="#d9ead3"/><stop offset="0.57" stop-color="#c9daf8"/><stop offset="0.74" stop-color="#ead1dc"/><stop offset="1.0" stop-color="#ffffff"/></linearGradient></defs><path fill="url(#p.7)" d="m178.69041 307.07095c2.5768127 0 4.730606 0.93170166 6.4613953 2.7950745c1.7372437 1.8572388 2.6058655 4.5911865 2.6058655 8.201843c0 3.830597 -0.86216736 6.6806335 -2.586502 8.55011c-1.7243195 1.8694763 -3.8845825 2.8041992 -6.4807587 2.8041992c-2.6155548 0 -4.785492 -0.9286194 -6.5098114 -2.7858582c-1.7243347 -1.8633728 -2.586502 -4.664551 -2.586502 -8.403473c0 -3.7389526 0.86216736 -6.534027 2.586502 -8.385162c1.7243195 -1.8511353 3.8942566 -2.7767334 6.5098114 -2.7767334zm0 -4.096344c-3.8167725 0 -7.052307 1.0813599 -9.706604 3.24411c-3.177414 2.6026 -4.7661285 6.6073 -4.7661285 12.01413c0 4.9302673 1.3303833 8.705872 3.99115 11.326813c2.667221 2.6209106 6.161072 3.9313965 10.481583 3.9313965c2.6930542 0 5.1762238 -0.5956726 7.4494934 -1.7870178c2.2797241 -1.1913147 4.013733 -2.8622437 5.2020416 -5.0127563c1.1947632 -2.1566162 1.7921295 -5.113556 1.7921295 -8.870819c0 -4.6370544 -1.3465118 -8.2690735 -4.039566 -10.896118c-2.6930542 -2.6331482 -6.161087 -3.9497375 -10.4040985 -3.9497375z" fill-rule="evenodd"/><defs><linearGradient id="p.8" gradientUnits="userSpaceOnUse" gradientTransform="matrix(6.40034877199193 0.0 0.0 6.40034877199193 0.0 0.0)" spreadMethod="pad" x1="7.313412985969371" y1="45.70478660213838" x2="7.313390559575041" y2="52.10513537409102"><stop offset="0.0" stop-color="#f4cccc"/><stop offset="0.28" stop-color="#fff2cc"/><stop offset="0.44" stop-color="#d9ead3"/><stop offset="0.57" stop-color="#c9daf8"/><stop offset="0.74" stop-color="#ead1dc"/><stop offset="1.0" stop-color="#ffffff"/></linearGradient></defs><path fill="url(#p.8)" d="m210.60017 302.9746c-1.2205963 0 -2.3410797 0.32992554 -3.3614655 0.9897156c-1.0139465 0.65982056 -2.1215057 2.0252686 -3.3227234 4.0963745l0 -4.4262695l-4.708008 0l0 29.196808l5.2311096 0l0 -15.285706c0 -2.0894165 0.2906189 -4.0138855 0.8718567 -5.7733765c0.3874817 -1.1546936 1.0365295 -2.0558167 1.9471283 -2.7034302c0.91059875 -0.6536865 1.9374542 -0.9805298 3.0805511 -0.9805298c1.2787018 0 2.5574188 0.35739136 3.8361359 1.0721741l1.8018341 -4.5911865c-1.8212128 -1.0630493 -3.6133423 -1.594574 -5.376419 -1.594574z" fill-rule="evenodd"/><defs><linearGradient id="p.9" gradientUnits="userSpaceOnUse" gradientTransform="matrix(6.40034877199193 0.0 0.0 6.40034877199193 0.0 0.0)" spreadMethod="pad" x1="7.313412985969371" y1="45.70478660213838" x2="7.313390559575041" y2="52.10513537409102"><stop offset="0.0" stop-color="#f4cccc"/><stop offset="0.28" stop-color="#fff2cc"/><stop offset="0.44" stop-color="#d9ead3"/><stop offset="0.57" stop-color="#c9daf8"/><stop offset="0.74" stop-color="#ead1dc"/><stop offset="1.0" stop-color="#ffffff"/></linearGradient></defs><path fill="url(#p.9)" d="m231.81522 307.0435c2.6542969 0 4.81456 0.95306396 6.4807587 2.859192c1.0849762 1.2279663 1.7436981 3.0699768 1.9761963 5.52594l-17.233582 0c0.17436218 -2.5476074 1.0785065 -4.5820312 2.7124176 -6.1032715c1.6403809 -1.5212402 3.6617737 -2.2818604 6.064209 -2.2818604zm-0.058120728 -4.068878c-4.26239 0 -7.730423 1.3562927 -10.4040985 4.068878c-2.6736755 2.712555 -4.0105133 6.524811 -4.0105133 11.436768c0 4.7470093 1.320694 8.437073 3.962082 11.070251c2.6478424 2.6270142 6.228897 3.9405518 10.743149 3.9405518c3.5842743 0 6.52919 -0.82476807 8.834763 -2.4743042c2.3055573 -1.6495361 3.8845673 -3.968048 4.7370453 -6.9555664l-5.405472 -0.6323242c-0.7943573 2.0894165 -1.8696289 3.6106567 -3.2258453 4.5637207c-1.3562164 0.95306396 -2.9933624 1.429596 -4.911438 1.429596c-2.5767975 0 -4.727371 -0.8522339 -6.4516907 -2.5567627c-1.7243347 -1.7045288 -2.6833649 -4.160492 -2.8771057 -7.3679504l23.016861 0c0.019378662 -0.5864868 0.029067993 -1.0263672 0.029067993 -1.3196106c0 -4.8203125 -1.307785 -8.559265 -3.9233246 -11.216858c-2.6155548 -2.6575928 -5.986725 -3.9863892 -10.11348 -3.9863892z" fill-rule="evenodd"/><defs><linearGradient id="p.10" gradientUnits="userSpaceOnUse" gradientTransform="matrix(6.40034877199193 0.0 0.0 6.40034877199193 0.0 0.0)" spreadMethod="pad" x1="7.313412985969371" y1="45.70478660213838" x2="7.313390559575041" y2="52.10513537409102"><stop offset="0.0" stop-color="#f4cccc"/><stop offset="0.28" stop-color="#fff2cc"/><stop offset="0.44" stop-color="#d9ead3"/><stop offset="0.57" stop-color="#c9daf8"/><stop offset="0.74" stop-color="#ead1dc"/><stop offset="1.0" stop-color="#ffffff"/></linearGradient></defs><path fill="url(#p.10)" d="m263.52155 302.9746c-1.2206116 0 -2.341095 0.32992554 -3.3614807 0.9897156c-1.013916 0.65982056 -2.1214905 2.0252686 -3.3227234 4.0963745l0 -4.4262695l-4.7079926 0l0 29.196808l5.2310944 0l0 -15.285706c0 -2.0894165 0.2906189 -4.0138855 0.8718567 -5.7733765c0.3875122 -1.1546936 1.0365295 -2.0558167 1.9471436 -2.7034302c0.910614 -0.6536865 1.937439 -0.9805298 3.080536 -0.9805298c1.278717 0 2.557434 0.35739136 3.8361511 1.0721741l1.8018188 -4.5911865c-1.8211975 -1.0630493 -3.6133423 -1.594574 -5.376404 -1.594574z" fill-rule="evenodd"/><defs><linearGradient id="p.11" gradientUnits="userSpaceOnUse" gradientTransform="matrix(6.40034877199193 0.0 0.0 6.40034877199193 0.0 0.0)" spreadMethod="pad" x1="7.313412985969371" y1="45.70478660213838" x2="7.313390559575041" y2="52.10513537409102"><stop offset="0.0" stop-color="#f4cccc"/><stop offset="0.28" stop-color="#fff2cc"/><stop offset="0.44" stop-color="#d9ead3"/><stop offset="0.57" stop-color="#c9daf8"/><stop offset="0.74" stop-color="#ead1dc"/><stop offset="1.0" stop-color="#ffffff"/></linearGradient></defs><path fill="url(#p.11)" d="m272.03662 292.52756l0 5.6908875l5.2311096 0l0 -5.6908875zm0 11.106873l0 29.196808l5.2311096 0l0 -29.196808z" fill-rule="evenodd"/><defs><linearGradient id="p.12" gradientUnits="userSpaceOnUse" gradientTransform="matrix(6.40034877199193 0.0 0.0 6.40034877199193 0.0 0.0)" spreadMethod="pad" x1="7.313412985969371" y1="45.70478660213838" x2="7.313390559575041" y2="52.10513537409102"><stop offset="0.0" stop-color="#f4cccc"/><stop offset="0.28" stop-color="#fff2cc"/><stop offset="0.44" stop-color="#d9ead3"/><stop offset="0.57" stop-color="#c9daf8"/><stop offset="0.74" stop-color="#ead1dc"/><stop offset="1.0" stop-color="#ffffff"/></linearGradient></defs><path fill="url(#p.12)" d="m304.93448 318.17786l0 1.8144836c0 2.1810608 -0.28094482 3.830597 -0.84280396 4.9486084c-0.7362366 1.447937 -1.8890076 2.590393 -3.4583435 3.4273682c-1.5693359 0.8308716 -3.3614502 1.2463379 -5.376404 1.2463379c-2.0343323 0 -3.5810547 -0.43988037 -4.6401978 -1.3196411c-1.0526733 -0.87976074 -1.57901 -1.9794617 -1.57901 -3.2990723c0 -0.8614197 0.2421875 -1.6434326 0.726532 -2.3460083c0.484375 -0.7087097 1.1721497 -1.2463074 2.063385 -1.6128845c0.89123535 -0.36657715 2.41214 -0.69647217 4.562683 -0.9897156c3.7973938 -0.5131836 6.645447 -1.1363525 8.544159 -1.8694763zm-6.6551514 -15.203247c-2.6542969 0 -4.988922 0.34518433 -7.003845 1.035553c-2.0149536 0.6842346 -3.5552368 1.6647949 -4.620819 2.941681c-1.0656128 1.270752 -1.8309021 2.9416504 -2.295868 5.0127563l5.1148376 0.65982056c0.56185913 -2.071106 1.4272461 -3.512909 2.5961914 -4.32547c1.1753845 -0.81866455 2.9933472 -1.2279968 5.4539185 -1.2279968c2.6349182 0 4.620819 0.559021 5.9576416 1.6770325c0.98809814 0.82476807 1.4821472 2.2452087 1.4821472 4.261322c0 0.18328857 -0.009674072 0.61398315 -0.029052734 1.2921448c-1.995575 0.65979004 -5.105194 1.2279663 -9.328827 1.7044983c-2.073059 0.23828125 -3.6230164 0.48571777 -4.649872 0.7423096c-1.3949585 0.36654663 -2.651062 0.90722656 -3.7683105 1.6220398c-1.1108093 0.7147827 -2.0117188 1.6647949 -2.7027588 2.8500366c-0.6845703 1.1791077 -1.0268555 2.4834595 -1.0268555 3.9130554c0 2.4376526 0.910614 4.4415283 2.7318115 6.0116577c1.8211975 1.5639954 4.427063 2.3460083 7.8175964 2.3460083c2.053711 0 3.975006 -0.32073975 5.763916 -0.96224976c1.7953491 -0.6414795 3.6617737 -1.7411499 5.5992126 -3.2990723c0.15499878 1.3746338 0.50375366 2.5751343 1.0462341 3.6015015l5.4635925 0c-0.6587219 -1.1180115 -1.1011047 -2.284912 -1.3271484 -3.5006714c-0.21957397 -1.2218933 -0.32937622 -4.133026 -0.32937622 -8.733398l0 -6.5981445c0 -2.1993713 -0.08718872 -3.7206116 -0.26153564 -4.5637207c-0.30999756 -1.3562927 -0.852478 -2.477356 -1.6274719 -3.3632202c-0.7749634 -0.8919678 -1.9858704 -1.6312256 -3.632721 -2.2177124c-1.6468201 -0.58651733 -3.7876892 -0.87976074 -6.422638 -0.87976074z" fill-rule="evenodd"/></g></svg>